# xmcd
#
# Track frame offsets:
#	150
#	23309
#	40170
#	58313
#	74351
#	100339
#	118373
#	139878
#	154855
#	175443
#	192042
#	216823
#	232191
#
# Disc length: 3387 seconds
#
# Revision: 0
# Processed by: cddbd v1.5.2PL0 Copyright (c) Steve Scherf et al.
# Submitted via: audiograbber 1.83.01
#
DISCID=c00d390d
DTITLE=Paul Millns - Against The Tide
DYEAR=1994
DGENRE=Blues
TTITLE0=Drive She Said
TTITLE1=When Love Comes Calling
TTITLE2=Unwelcome Neighbour
TTITLE3=Rise And Shine
TTITLE4=Don't Wait Too Long
TTITLE5=No-one On The Street
TTITLE6=God Save The Self-doubter
TTITLE7=She Likes The Rain
TTITLE8=Watching The Dinosaurs
TTITLE9=Highway Eyes
TTITLE10=Dark Water
TTITLE11=Back On Your Bike Boy
TTITLE12=The Meaning Of The Word
EXTD=
EXTT0=
EXTT1=
EXTT2=
EXTT3=
EXTT4=
EXTT5=
EXTT6=
EXTT7=
EXTT8=
EXTT9=
EXTT10=
EXTT11=
EXTT12=
PLAYORDER=
